<svg xmlns="http://www.w3.org/2000/svg" width="14" height="24"><path fill-opacity=".6" d="M3.23 8.603V6.51C3.23 3.04 6.124.23 9.693.23h3.23C13.518.23 14 .698 14 1.276v4.187c0 .578-.482 1.047-1.076 1.047H9.692v2.093h3.23c.701 0 1.215.64 1.045 1.3L12.89 14.09c-.12.466-.55.793-1.044.793H9.692v7.327c0 .578-.482 1.047-1.077 1.047H4.308c-.595 0-1.077-.469-1.077-1.047v-7.327H1.077C.482 14.883 0 14.415 0 13.837V9.65c0-.578.482-1.047 1.077-1.047H3.23zm8.616-6.28H9.692c-2.379 0-4.308 1.875-4.308 4.187v3.14c0 .578-.482 1.047-1.076 1.047H2.154v2.093h2.154c.594 0 1.076.469 1.076 1.047v7.326h2.154v-7.326c0-.578.482-1.047 1.077-1.047h2.39l.538-2.093H8.615c-.595 0-1.077-.47-1.077-1.047V6.51c0-1.156.964-2.094 2.154-2.094h2.154V2.323z"/></svg>