<svg xmlns="http://www.w3.org/2000/svg" xmlns:xlink="http://www.w3.org/1999/xlink" width="160" height="53"><defs><path id="a" d="M130.318-.928c7.47 0 14.414 3.319 19.182 8.976 3.891 4.616 6.068 10.484 6.068 16.691 0 14.182-11.31 25.667-25.25 25.667-5.856 0-11.409-2.034-15.87-5.702a1.11 1.11 0 01-.17-1.515 1.007 1.007 0 011.453-.178 22.875 22.875 0 0014.587 5.238c12.808 0 23.18-10.532 23.18-23.51 0-5.677-1.989-11.04-5.552-15.268-4.378-5.193-10.757-8.242-17.628-8.242a22.881 22.881 0 00-14.864 5.47 1.006 1.006 0 01-1.456-.155 1.11 1.11 0 01.149-1.518c4.507-3.824 10.18-5.954 16.171-5.954zm-83.25 28.741c1.3 0 2.341.624 2.991 1.249v-.874h2.34v9.492c0 3.872-2.34 5.496-5.2 5.496-2.73 0-4.291-1.749-4.941-3.123l2.08-.874c.26.874 1.3 1.873 2.73 1.873 1.82 0 2.991-1.124 2.991-3.122v-.75h-.13c-.52.625-1.56 1.25-2.86 1.25-2.861 0-5.331-2.249-5.331-5.246 0-2.998 2.6-5.371 5.33-5.371zm54.61.375l2.861 6.744h.13l2.73-6.744H110l-6.631 14.738h-2.47l2.47-5.246-4.291-9.492h2.6zm-38.747-.25c2.861 0 4.161 2.123 4.681 3.372l.26.625-7.411 2.997c.65 1.124 1.43 1.624 2.73 1.624s2.08-.625 2.731-1.499l1.82 1.25c-.52.873-2.08 2.372-4.55 2.372-3.121 0-5.462-2.373-5.462-5.37 0-3.248 2.34-5.371 5.201-5.371zm-39.917 0c3.12 0 5.591 2.123 5.591 5.37 0 3.123-2.47 5.371-5.59 5.371-3.121 0-5.592-2.373-5.592-5.37 0-3.123 2.47-5.371 5.591-5.371zm12.092 0c3.121 0 5.591 2.123 5.591 5.37 0 3.123-2.47 5.371-5.59 5.371-3.121 0-5.592-2.373-5.592-5.37 0-3.123 2.47-5.371 5.591-5.371zm-26.394-5.87c2.6 0 4.42.999 5.85 2.248l-1.69 1.623c-1.04-.874-2.47-1.623-4.29-1.623-3.381 0-6.112 2.623-6.112 5.995s2.6 5.995 6.112 5.995c2.21 0 3.51-.874 4.29-1.624.65-.624 1.17-1.623 1.3-2.872h-5.59v-2.248h8.061c.13.374.13.874.13 1.373 0 1.624-.52 3.747-2.08 5.246-1.56 1.624-3.38 2.373-5.981 2.373C4.03 38.554 0 34.807 0 30.311s4.03-8.243 8.712-8.243zm85.295 5.745c2.73 0 4.941 1.624 5.201 4.371v5.996h-2.34v-1.25h-.13c-.65.75-1.43 1.5-3.121 1.5-2.08 0-4.03-1.374-4.03-3.498 0-2.248 2.34-3.497 4.68-3.497 1.04 0 2.08.375 2.47.625v-.125c-.13-1.25-1.3-1.999-2.6-1.999-.91 0-1.69.25-2.21 1.124l-2.21-.874c.65-1.624 2.47-2.373 4.29-2.373zm-5.981-5.246V38.18h-2.47V22.567h2.47zm-9.102 0c2.73 0 5.331 1.874 5.331 4.871 0 2.998-2.6 4.871-5.33 4.871h-3.381v5.87h-2.47V22.568zm-22.494 0V38.18h-2.47V22.567h2.47zm37.967 10.866c-1.17 0-2.6.375-2.6 1.624 0 1 1.17 1.374 1.95 1.374 1.3 0 2.6-1 2.86-2.498-.65-.25-1.17-.5-2.21-.5zM47.2 29.936c-1.69 0-3.121 1.374-3.121 3.248 0 1.873 1.43 3.247 3.12 3.247 1.69 0 2.991-1.374 2.991-3.247 0-1.874-1.3-3.248-2.99-3.248zm-24.185 0c-1.69 0-3.12 1.374-3.12 3.248 0 1.873 1.43 3.247 3.12 3.247 1.69 0 3.12-1.374 3.12-3.247 0-1.999-1.43-3.248-3.12-3.248zm12.092 0c-1.69 0-3.12 1.374-3.12 3.248 0 1.873 1.43 3.247 3.12 3.247 1.69 0 3.121-1.374 3.121-3.247 0-1.999-1.43-3.248-3.12-3.248zm89.586-15.527l9.06 10.063-8.977 9.964c-.364-.096-.6-.45-.6-.997V15.382c0-.456.162-.779.426-.929l.091-.044zm9.578 10.64l2.655 2.95-10.903 6.054 8.248-9.004zM62.93 29.936c-1.17 0-2.86 1.124-2.86 3.123l4.94-1.999c-.26-.624-1.17-1.124-2.08-1.124zm16.123-5.246h-3.51v5.371h3.51c1.69 0 2.73-1.374 2.86-2.748 0-1.124-1.04-2.623-2.86-2.623zm58.676-3.42l4.212 2.34c.797.443.805 1.157 0 1.604l-4.319 2.397-2.816-3.149 2.923-3.191zm-11.481-6.375L137 20.865l-2.715 3.014-8.036-8.984zM24.117 10.042c.889 0 1.592.322 2.11.965.516.642.775 1.537.775 2.682v.112c0 1.08-.258 1.95-.773 2.61-.514.66-1.212.99-2.091.99-.898 0-1.604-.273-2.12-.82V20h-1.264v-9.825h1.155l.062.787c.515-.612 1.23-.919 2.146-.919zm55.323 0c.853 0 1.52.205 2.003.614.483.409.734.972.752 1.689v3.266c0 .651.087 1.17.26 1.554v.105H81.13c-.073-.14-.132-.389-.178-.747-.588.585-1.29.878-2.105.878-.73 0-1.328-.197-1.795-.593a1.887 1.887 0 01-.7-1.505c0-.74.292-1.313.878-1.722.586-.409 1.41-.613 2.471-.613h1.23v-.558c0-.424-.131-.762-.396-1.013-.264-.252-.654-.377-1.169-.377-.45 0-.83.109-1.135.328-.305.218-.458.483-.458.793h-1.271c0-.354.131-.696.393-1.026.262-.33.618-.592 1.066-.784a3.718 3.718 0 011.48-.289zm-63.225 0c.838 0 1.519.208 2.04.624.522.415.783.946.783 1.593h-1.271c0-.332-.147-.618-.441-.859-.294-.24-.665-.36-1.111-.36-.46 0-.82.096-1.08.288a.896.896 0 00-.39.754c0 .293.12.514.362.663.242.148.678.29 1.31.426.63.136 1.142.297 1.534.485.392.188.683.415.872.68.189.264.283.586.283.967 0 .634-.264 1.142-.793 1.525-.528.382-1.214.573-2.057.573-.593 0-1.117-.1-1.572-.301a2.537 2.537 0 01-1.07-.843 1.975 1.975 0 01-.386-1.17h1.264c.023.406.193.728.51.967.316.238.734.357 1.254.357.478 0 .862-.093 1.152-.279.29-.186.434-.434.434-.744a.881.881 0 00-.386-.764c-.258-.182-.707-.338-1.347-.47-.64-.13-1.149-.288-1.525-.471-.376-.184-.653-.403-.834-.656a1.523 1.523 0 01-.27-.905c0-.582.257-1.074.77-1.476.512-.402 1.167-.604 1.965-.604zm41.255 0c.961 0 1.709.304 2.242.912.533.608.8 1.478.8 2.61v.506H55.5c.018.7.231 1.264.64 1.695.407.43.925.646 1.554.646.447 0 .825-.087 1.135-.262.31-.175.581-.407.814-.696l.772.578c-.62.914-1.55 1.37-2.789 1.37-1.003 0-1.818-.315-2.447-.947-.63-.632-.944-1.477-.944-2.535v-.223c0-.704.14-1.333.42-1.886a3.19 3.19 0 011.177-1.299 3.047 3.047 0 011.637-.469zm-25.84 0c1.007 0 1.822.335 2.444 1.004.622.669.933 1.559.933 2.67v.085c0 .69-.138 1.31-.414 1.86-.275.548-.67.975-1.182 1.281-.513.306-1.102.46-1.767.46-1.003 0-1.815-.335-2.437-1.004-.623-.67-.934-1.554-.934-2.656v-.086c0-.695.143-1.32.428-1.875a3.104 3.104 0 011.19-1.286c.507-.302 1.087-.453 1.739-.453zm31.719-2.846V17.27h-1.265V7.196h1.265zM3.965 7.72c.866 0 1.631.183 2.297.55.665.368 1.179.89 1.541 1.568.363.678.546 1.456.55 2.335v.61c0 .9-.18 1.69-.543 2.368a3.739 3.739 0 01-1.552 1.56c-.672.364-1.455.55-2.348.558H1.155V7.72h2.81zm41.726 2.453v7.096H44.42v-7.096h1.271zm26.599-.132c1.563 0 2.352.847 2.365 2.539v4.69h-1.264v-4.697c-.005-.511-.127-.89-.366-1.135-.24-.244-.612-.367-1.118-.367-.41 0-.77.105-1.08.315-.31.21-.551.485-.724.826v5.057h-1.265v-7.096h1.196l.041.892c.565-.682 1.304-1.024 2.215-1.024zm-23.953.132l1.88 5.45 1.832-5.45h1.292l-2.653 7.096h-.963l-2.68-7.096h1.292zm-36.825 0v7.096h-1.265v-7.096h1.265zm28.533-.132c1.563 0 2.351.847 2.365 2.539v4.69h-1.264v-4.697c-.005-.511-.127-.89-.366-1.135-.24-.244-.612-.367-1.118-.367-.41 0-.77.105-1.08.315a2.17 2.17 0 00-.725.826v5.057h-1.264v-7.096h1.196l.041.892c.565-.682 1.303-1.024 2.215-1.024zm-16.304 1.03c-.765 0-1.34.326-1.722.977v3.391c.378.648.957.971 1.736.971.606 0 1.088-.23 1.446-.692.357-.461.536-1.147.536-2.056 0-.8-.177-1.432-.533-1.896-.355-.463-.843-.695-1.463-.695zm7.889-.033c-.624 0-1.128.239-1.51.715-.384.477-.575 1.159-.575 2.047 0 .787.19 1.419.57 1.895.381.477.89.715 1.529.715.642 0 1.153-.242 1.53-.725.38-.483.568-1.16.568-2.03 0-.778-.192-1.409-.577-1.892-.386-.483-.897-.725-1.535-.725zm49.3 2.788h-.99c-1.55 0-2.325.435-2.325 1.305 0 .38.132.678.397.892.264.214.604.321 1.018.321a2.29 2.29 0 001.128-.295c.356-.196.613-.452.773-.767v-1.456zM4 8.757H2.468v7.484h1.38c1.012 0 1.8-.302 2.362-.906.563-.603.845-1.462.845-2.577V12.2c0-1.084-.266-1.927-.797-2.528-.53-.601-1.284-.906-2.259-.915zm53.47 2.282c-.51 0-.938.179-1.284.535-.347.356-.561.856-.643 1.499h3.705v-.092c-.036-.617-.21-1.094-.52-1.433-.31-.34-.729-.509-1.257-.509zM47.237 7.203L45.404 9.13h-1.018l1.32-1.928h1.53zm-36.346.386c.246 0 .433.068.56.204a.7.7 0 01.192.498.676.676 0 01-.192.492c-.127.131-.314.197-.56.197-.246 0-.432-.066-.557-.197a.684.684 0 01-.188-.492c0-.196.062-.363.188-.498.125-.136.31-.204.557-.204z"/></defs><g fill="none" fill-rule="evenodd" transform="translate(0 1.554)"><mask id="b" fill="#fff"><use xlink:href="#a"/></mask><use fill="#FFF" fill-rule="nonzero" xlink:href="#a"/><g fill="#000" fill-opacity=".6" mask="url(#b)"><path d="M0-.96h160v51.812H0z"/></g></g></svg>