<svg xmlns="http://www.w3.org/2000/svg" width="24" height="20"><path fill-opacity=".6" d="M22.422.294c.755-.512 1.766.15 1.548 1.012a8.276 8.276 0 01-1.995 3.626c.015.156.023.313.023.47 0 11.394-11.444 17.248-21.482 11.889-.92-.491-.527-1.84.526-1.8a11.012 11.012 0 004.873-.93C3.711 13.257 2.3 11.529 1.608 9.485c-.715-2.11-.61-4.33-.014-6.436.18-.637.364-1.117.494-1.399.315-.682 1.285-.773 1.732-.162C5.49 3.774 8.134 5.202 11 5.41c-.015-2.195 1.389-4.17 3.525-4.955 1.932-.708 4.094-.306 5.607.995a10.044 10.044 0 002.29-1.155zm-2.275 3.175a1.026 1.026 0 01-1.043-.29c-.958-1.058-2.502-1.43-3.866-.93C13.874 2.75 12.98 4.016 13 5.432v.96c0 .522-.432.948-.974.961-3.26.082-6.375-1.152-8.62-3.35-.395 1.639-.424 3.328.104 4.887.676 2 2.226 3.622 4.897 4.763a.944.944 0 01.155 1.673 12.877 12.877 0 01-3.629 1.63C12.611 18.894 20 13.997 20 5.404c0-.208-.022-.415-.062-.62a.937.937 0 01.28-.864c.222-.211.429-.436.617-.673-.226.08-.455.154-.687.22z"/></svg>