<svg xmlns="http://www.w3.org/2000/svg" xmlns:xlink="http://www.w3.org/1999/xlink" width="160" height="53" viewBox="0 0 160 53">
    <defs>
        <path id="a" d="M129.609-1.054c7.544 0 14.556 3.361 19.372 9.092 3.93 4.676 6.127 10.62 6.127 16.908 0 14.366-11.422 26-25.5 26-5.914 0-11.522-2.06-16.026-5.776a1.126 1.126 0 0 1-.173-1.534 1.015 1.015 0 0 1 1.468-.181c4.137 3.413 9.29 5.306 14.732 5.306 12.934 0 23.41-10.669 23.41-23.815 0-5.75-2.01-11.183-5.608-15.466-4.421-5.261-10.863-8.35-17.802-8.35-5.568 0-10.832 1.983-15.012 5.542-.448.38-1.106.31-1.47-.158a1.127 1.127 0 0 1 .15-1.537c4.551-3.873 10.28-6.031 16.332-6.031zM30.723 28.053c1.302 0 2.314.462 3.037 1.387.722.924 1.084 2.198 1.084 3.823v.14c0 1.562-.37 2.813-1.109 3.753s-1.736 1.41-2.993 1.41c-1.068 0-1.93-.356-2.588-1.068v4.778h-2.822V28.24h2.617l.098.994c.683-.788 1.575-1.181 2.676-1.181zm-11.26 0c1.302 0 2.314.462 3.037 1.387.723.924 1.084 2.198 1.084 3.823v.14c0 1.562-.37 2.813-1.108 3.753-.74.94-1.737 1.41-2.994 1.41-1.067 0-1.93-.356-2.587-1.068v4.778h-2.823V28.24h2.617l.098.994c.684-.788 1.576-1.181 2.676-1.181zm26.982 0c1.446 0 2.583.437 3.413 1.312.83.874 1.246 2.114 1.246 3.72v1.105h-6.729c.091.662.366 1.193.825 1.593.46.4 1.04.6 1.743.6 1.088 0 1.937-.378 2.55-1.134l1.386 1.49c-.423.574-.996 1.023-1.719 1.344-.723.322-1.523.483-2.402.483-1.55 0-2.811-.456-3.784-1.368-.974-.912-1.46-2.127-1.46-3.645v-.262c0-1.019.205-1.929.615-2.732a4.401 4.401 0 0 1 1.743-1.855c.752-.434 1.61-.651 2.573-.651zm52.97 0c1.444 0 2.582.437 3.412 1.312.83.874 1.245 2.114 1.245 3.72v1.105h-6.728c.09.662.366 1.193.825 1.593.459.4 1.04.6 1.743.6 1.087 0 1.937-.378 2.549-1.134l1.387 1.49c-.424.574-.996 1.023-1.72 1.344-.722.322-1.523.483-2.401.483-1.55 0-2.811-.456-3.785-1.368-.973-.912-1.46-2.127-1.46-3.645v-.262c0-1.019.205-1.929.616-2.732a4.401 4.401 0 0 1 1.743-1.855c.752-.434 1.61-.651 2.573-.651zm-18.419 0c1.426 0 2.59.418 3.491 1.255.902.838 1.405 1.974 1.51 3.411l.019.693c0 1.556-.453 2.804-1.358 3.744-.905.94-2.119 1.41-3.642 1.41-1.524 0-2.74-.469-3.648-1.406-.908-.937-1.362-2.21-1.362-3.823v-.121c0-1.006.202-1.902.605-2.69a4.324 4.324 0 0 1 1.743-1.827c.759-.43 1.64-.646 2.642-.646zM62.96 24.549c1.016 0 1.92.176 2.715.53.794.352 1.411.85 1.85 1.494.44.643.66 1.374.66 2.192h-2.93c0-.625-.205-1.11-.615-1.457-.41-.347-.987-.52-1.729-.52-.716 0-1.273.145-1.67.436-.397.29-.595.673-.595 1.148 0 .443.232.815.698 1.115.465.3 1.15.58 2.055.843 1.667.48 2.881 1.077 3.643 1.79.762.712 1.143 1.598 1.143 2.66 0 1.181-.466 2.107-1.397 2.779-.93.671-2.184 1.007-3.76 1.007-1.093 0-2.09-.192-2.988-.576-.898-.385-1.584-.91-2.056-1.58-.472-.668-.708-1.442-.708-2.323h2.94c0 1.505.937 2.258 2.812 2.258.697 0 1.24-.136 1.631-.407.39-.272.586-.652.586-1.139 0-.53-.195-.938-.586-1.223-.39-.284-1.094-.584-2.11-.9-1.015-.315-1.819-.625-2.411-.931-1.615-.837-2.422-1.965-2.422-3.383 0-.737.216-1.394.65-1.972.432-.578 1.054-1.03 1.864-1.354.811-.325 1.72-.487 2.73-.487zm10.4 1.199v2.492h1.807v1.987h-1.807v5.06c0 .374.075.643.225.805.15.163.436.244.86.244.312 0 .589-.022.83-.066v2.052a6.037 6.037 0 0 1-1.71.244c-1.979 0-2.988-.96-3.027-2.877v-5.462h-1.543V28.24h1.543v-2.492h2.822zM39.57 23.986v14.392h-2.832V23.986h2.832zm53.282 4.067c.312 0 .605.04.878.122l-.039 2.605a7.985 7.985 0 0 0-1.015-.075c-1.068 0-1.768.346-2.1 1.04v6.633h-2.822V28.24h2.666l.078 1.209c.566-.93 1.351-1.396 2.354-1.396zM8.076 24.736l5.322 13.642h-3.115l-.986-2.81H4.16l-.976 2.81H.068l5.293-13.642h2.715zm72.92 5.51c-.69 0-1.224.257-1.601.772-.378.516-.567 1.314-.567 2.394 0 .962.189 1.698.567 2.207.377.51.917.764 1.62.764.684 0 1.218-.252 1.602-.755.384-.502.576-1.307.576-2.412 0-.944-.192-1.674-.576-2.193-.384-.518-.924-.778-1.62-.778zm-51.016.009c-.885 0-1.494.325-1.826.974v4.151c.345.668.96 1.003 1.846 1.003 1.348 0 2.021-1.06 2.021-3.177 0-.943-.174-1.67-.522-2.183-.348-.512-.854-.768-1.519-.768zm-11.26 0c-.885 0-1.493.325-1.825.974v4.151c.345.668.96 1.003 1.845 1.003 1.348 0 2.022-1.06 2.022-3.177 0-.943-.174-1.67-.523-2.183-.348-.512-.854-.768-1.518-.768zm116.401-12.968c.758.032 2.895.283 4.269 2.132-.114.066-2.55 1.37-2.524 4.09.03 3.25 3.098 4.333 3.134 4.346-.029.073-.492 1.542-1.618 3.054l-.266.356c-.892 1.181-1.86 2.263-3.306 2.286-1.56.029-2.062-.852-3.848-.852s-2.344.827-3.822.88c-1.537.056-2.702-1.415-3.684-2.719-2.006-2.668-3.535-7.54-1.482-10.826 1.024-1.633 2.847-2.665 4.829-2.693 1.51-.023 2.93.933 3.852.933.922 0 2.648-1.157 4.466-.987zM6.72 28.184L4.95 33.291h3.555l-1.787-5.107zm92.685 2.061c-.56 0-1.014.182-1.362.544-.348.362-.571.88-.669 1.555h3.926v-.215c-.013-.6-.182-1.064-.508-1.392-.326-.328-.788-.492-1.387-.492zm-52.968 0c-.56 0-1.014.182-1.363.544-.348.362-.571.88-.669 1.555h3.926v-.215c-.013-.6-.182-1.064-.508-1.392-.325-.328-.787-.492-1.386-.492zM24.117 10.042c.889 0 1.592.322 2.11.965.516.642.775 1.537.775 2.682v.112c0 1.08-.258 1.95-.773 2.61-.514.66-1.212.99-2.091.99-.898 0-1.604-.273-2.12-.82V20h-1.264v-9.825h1.155l.062.787c.515-.612 1.23-.919 2.146-.919zm-7.902 0c.838 0 1.519.208 2.04.624.522.415.783.946.783 1.593h-1.271c0-.332-.147-.618-.441-.859-.294-.24-.665-.36-1.111-.36-.46 0-.82.096-1.08.288a.896.896 0 0 0-.39.754c0 .293.12.514.362.663.242.148.678.29 1.31.426.63.136 1.142.297 1.534.485.392.188.683.415.872.68.189.264.283.586.283.967 0 .634-.264 1.142-.793 1.525-.528.382-1.214.573-2.057.573-.593 0-1.117-.1-1.572-.301a2.537 2.537 0 0 1-1.07-.843 1.975 1.975 0 0 1-.386-1.17h1.264c.023.406.193.728.51.967.316.238.734.357 1.254.357.478 0 .862-.093 1.152-.279.29-.186.434-.434.434-.744a.881.881 0 0 0-.386-.764c-.258-.182-.707-.338-1.347-.47-.64-.13-1.149-.288-1.525-.471-.376-.184-.653-.403-.834-.656a1.523 1.523 0 0 1-.27-.905c0-.582.257-1.074.77-1.476.512-.402 1.167-.604 1.965-.604zm15.415 0c1.007 0 1.822.335 2.444 1.004.622.669.933 1.559.933 2.67v.085c0 .69-.138 1.31-.414 1.86-.275.548-.67.975-1.182 1.281-.513.306-1.102.46-1.767.46-1.003 0-1.815-.335-2.437-1.004-.623-.67-.934-1.554-.934-2.656v-.086c0-.695.143-1.32.428-1.875a3.104 3.104 0 0 1 1.19-1.286c.507-.302 1.087-.453 1.739-.453zm25.84 0c.961 0 1.709.304 2.242.912.533.608.8 1.478.8 2.61v.506H55.5c.018.7.231 1.264.64 1.695.407.43.925.646 1.554.646.447 0 .825-.087 1.135-.262.31-.175.581-.407.814-.696l.772.578c-.62.914-1.55 1.37-2.789 1.37-1.003 0-1.818-.315-2.447-.947-.63-.632-.944-1.477-.944-2.535v-.223c0-.704.14-1.333.42-1.886a3.19 3.19 0 0 1 1.177-1.299 3.047 3.047 0 0 1 1.637-.469zm21.97 0c.853 0 1.52.205 2.003.614.483.409.734.972.752 1.689v3.266c0 .651.087 1.17.26 1.554v.105H81.13c-.073-.14-.132-.389-.178-.747-.588.585-1.29.878-2.105.878-.73 0-1.328-.197-1.795-.593a1.887 1.887 0 0 1-.7-1.505c0-.74.292-1.313.878-1.722.586-.409 1.41-.613 2.471-.613h1.23v-.558c0-.424-.131-.762-.396-1.013-.264-.252-.654-.377-1.169-.377-.45 0-.83.109-1.135.328-.305.218-.458.483-.458.793h-1.271c0-.354.131-.696.393-1.026.262-.33.618-.592 1.066-.784a3.718 3.718 0 0 1 1.48-.289zm55.534 3.39c.158.976-.421 1.953-1.285 2.657-.86.702-2.275 1.247-3.659 1.175-.185-.954.513-1.948 1.31-2.572.886-.7 2.394-1.227 3.634-1.26zM3.964 7.721c.867 0 1.632.183 2.298.55.665.368 1.179.89 1.541 1.568.363.678.546 1.456.55 2.335v.61c0 .9-.18 1.69-.543 2.368a3.739 3.739 0 0 1-1.552 1.56c-.672.364-1.455.55-2.348.558H1.155V7.72h2.81zm68.326 2.321c1.563 0 2.352.847 2.365 2.539v4.69h-1.264v-4.697c-.005-.511-.127-.89-.366-1.135-.24-.244-.612-.367-1.118-.367-.41 0-.77.105-1.08.315-.31.21-.551.485-.724.826v5.057h-1.265v-7.096h1.196l.041.892c.565-.682 1.304-1.024 2.215-1.024zm-8.941-2.846V17.27h-1.265V7.196h1.265zm-15.012 2.978l1.88 5.45 1.832-5.45h1.292l-2.653 7.096h-.963l-2.68-7.096h1.292zm-2.646 0v7.096H44.42v-7.096h1.271zm-34.18 0v7.096h-1.264v-7.096h1.265zm28.534-.132c1.563 0 2.351.847 2.365 2.539v4.69h-1.264v-4.697c-.005-.511-.127-.89-.366-1.135-.24-.244-.612-.367-1.118-.367-.41 0-.77.105-1.08.315-.31.21-.551.485-.725.826v5.057h-1.264v-7.096h1.196l.041.892c.565-.682 1.303-1.024 2.215-1.024zm-8.415.997c-.624 0-1.128.239-1.51.715-.384.477-.575 1.159-.575 2.047 0 .787.19 1.419.57 1.895.381.477.89.715 1.529.715.642 0 1.153-.242 1.53-.725.38-.483.568-1.16.568-2.03 0-.778-.192-1.409-.577-1.892-.386-.483-.897-.725-1.535-.725zm-7.889.033c-.765 0-1.34.326-1.722.977v3.391c.378.648.957.971 1.736.971.606 0 1.088-.23 1.446-.692.357-.461.536-1.147.536-2.056 0-.8-.177-1.432-.533-1.896-.355-.463-.843-.695-1.463-.695zm57.19 2.755h-.992c-1.549 0-2.324.435-2.324 1.305 0 .38.132.678.397.892.264.214.604.321 1.018.321.397 0 .773-.098 1.128-.295.356-.196.613-.452.773-.767v-1.456zM3.999 8.757H2.468v7.484h1.38c1.012 0 1.8-.302 2.362-.906.563-.603.845-1.462.845-2.577V12.2c0-1.084-.266-1.927-.797-2.528-.53-.601-1.284-.906-2.259-.915zm53.47 2.282c-.51 0-.938.179-1.284.535-.347.356-.561.856-.643 1.499h3.705v-.092c-.036-.617-.21-1.094-.52-1.433-.31-.34-.729-.509-1.257-.509zM47.237 7.203L45.404 9.13h-1.018l1.32-1.928h1.53zm-36.346.386c.246 0 .433.068.56.204a.7.7 0 0 1 .192.498c0 .197-.064.361-.192.492-.127.131-.314.197-.56.197-.246 0-.432-.066-.557-.197a.684.684 0 0 1-.188-.492c0-.196.062-.363.188-.498.125-.136.31-.204.557-.204z"/>
    </defs>
    <g fill="none" fill-rule="evenodd" transform="translate(0 1.473)">
        <mask id="b" fill="#fff">
            <use xlink:href="#a"/>
        </mask>
        <g fill="#000" fill-opacity=".6" mask="url(#b)">
            <path d="M0-.96h160v51.812H0z"/>
        </g>
    </g>
</svg>
