<svg xmlns="http://www.w3.org/2000/svg" width="23" height="23" viewBox="0 0 23 23">
    <path fill="#FFF" fill-rule="nonzero" d="M21.87 4.986l-3.057 8.298a.993.993 0 0 1-.93.652h-9.74l-.839 1.53v.196h10.718c.549 0 .993.447.993.999 0 .551-.444.999-.993.999H6.311a.996.996 0 0 1-.993-1V15.21c0-.17.042-.335.124-.483l.944-1.721L3.077 2.632h-1.75a.996.996 0 0 1-.994-.999c0-.552.445-.999.993-.999h2.475c.432 0 .814.28.946.694l.632 1.982h15.74c.987 0 1.238 1.112.752 1.676zM6.312 22.293a1.992 1.992 0 0 1-1.986-1.999c0-1.103.89-1.998 1.986-1.998 1.097 0 1.986.895 1.986 1.998 0 1.104-.89 1.999-1.986 1.999zm11.916 0a1.992 1.992 0 0 1-1.986-1.999c0-1.103.89-1.998 1.986-1.998 1.097 0 1.986.895 1.986 1.998 0 1.104-.89 1.999-1.986 1.999z"/>
</svg>
