<svg xmlns="http://www.w3.org/2000/svg" width="24" height="24" viewBox="0 0 24 24">
    <path fill="#000" fill-opacity=".6" fill-rule="evenodd" d="M17.51 7.385c-.552 0-1.005-.43-1.005-.96 0-.529.443-.959.995-.959h.01c.553 0 1 .43 1 .96s-.447.96-1 .96zm-5.47 1.398c-1.121 0-2.161.6-2.676 1.584-.583 1.111-.36 2.45.558 3.33a3.086 3.086 0 0 0 3.47.535c1.159-.56 1.809-1.762 1.619-2.993-.195-1.263-1.211-2.238-2.527-2.425a3.16 3.16 0 0 0-.444-.03zm.002 7.678a5.102 5.102 0 0 1-3.534-1.408c-1.53-1.466-1.903-3.696-.931-5.55.972-1.851 3.056-2.891 5.2-2.587 2.194.312 3.887 1.936 4.212 4.042.317 2.051-.767 4.056-2.697 4.988a5.179 5.179 0 0 1-2.25.515zM7 3.068c-2.205 0-4 1.72-4 3.837V16.5c0 2.117 1.795 3.838 4 3.838h10c2.206 0 4-1.721 4-3.838V6.905c0-2.116-1.794-3.837-4-3.837H7zm10 19.189H7c-3.308 0-6-2.582-6-5.757V6.905C1 3.731 3.692 1.15 7 1.15h10c3.309 0 6 2.582 6 5.756V16.5c0 3.175-2.691 5.757-6 5.757z"/>
</svg>
