<svg xmlns="http://www.w3.org/2000/svg" width="24" height="24" viewBox="0 0 24 24">
    <path fill="#000" fill-opacity=".6" fill-rule="nonzero" d="M1.319 13.286C.591 13.286 0 12.71 0 12c0-.71.59-1.286 1.319-1.286h21.362c.728 0 1.319.576 1.319 1.286 0 .71-.59 1.286-1.319 1.286H1.319zm0-7.715C.591 5.571 0 4.996 0 4.286S.59 3 1.319 3h21.362C23.409 3 24 3.576 24 4.286c0 .71-.59 1.285-1.319 1.285H1.319zm0 15.429C.591 21 0 20.424 0 19.714c0-.71.59-1.285 1.319-1.285h21.362c.728 0 1.319.575 1.319 1.285S23.41 21 22.681 21H1.319z"/>
</svg>
