<svg xmlns="http://www.w3.org/2000/svg" width="17" height="16" viewBox="0 0 17 16">
    <path fill="#000" fill-opacity=".6" fill-rule="nonzero" d="M15.647 15.255a.739.739 0 0 1-.733.745.739.739 0 0 1-.732-.745v-2.594c0-1.234-.984-2.235-2.198-2.235h-5.34c-1.214 0-2.198 1-2.198 2.235v2.594a.739.739 0 0 1-.733.745.739.739 0 0 1-.733-.745v-2.594c0-2.057 1.64-3.724 3.664-3.724h5.34c2.023 0 3.663 1.667 3.663 3.724v2.594zM9.023 5.996c1.234 0 2.235-1.017 2.235-2.272s-1-2.273-2.235-2.273c-1.235 0-2.236 1.018-2.236 2.273 0 1.255 1 2.272 2.236 2.272zm0 1.451C7 7.447 5.359 5.78 5.359 3.724 5.36 1.667 7 0 9.023 0c2.023 0 3.663 1.667 3.663 3.724 0 2.056-1.64 3.723-3.663 3.723z"/>
</svg>
