<svg xmlns="http://www.w3.org/2000/svg" width="24" height="24" viewBox="0 0 24 24">
    <path fill="#000" fill-opacity=".6" fill-rule="evenodd" d="M10.75 10.016v2.976l2.728-1.488-2.727-1.488zm-1 5.585c-.173 0-.347-.045-.502-.13a.952.952 0 0 1-.497-.83V8.366a.95.95 0 0 1 .497-.829c.307-.171.687-.174.997-.005l5.75 3.138c.313.17.506.488.506.834a.953.953 0 0 1-.506.833l-5.75 3.138a1.034 1.034 0 0 1-.494.126zM12 5.027c-2.712 0-7.172.11-8.341.409A1.741 1.741 0 0 0 2.43 6.66 25.98 25.98 0 0 0 2 11.5c-.011 1.66.139 3.322.444 4.949.147.478.623.93 1.22 1.086 1.163.298 5.623.408 8.336.408s7.173-.11 8.342-.41a1.74 1.74 0 0 0 1.228-1.224c.287-1.537.436-3.174.43-4.801a25.87 25.87 0 0 0-.437-4.912 1.753 1.753 0 0 0-1.235-1.201c-1.28-.3-6.448-.367-8.328-.367zm0 14.834c-.717 0-7.062-.014-8.857-.474C1.87 19.052.859 18.092.499 16.88A27.564 27.564 0 0 1 0 11.497c-.01-1.742.15-3.51.476-5.24a3.73 3.73 0 0 1 2.652-2.672c1.809-.464 8.154-.477 8.872-.477.716 0 7.052.012 8.837.43 1.334.362 2.345 1.362 2.673 2.619A27.621 27.621 0 0 1 24 11.51a27.686 27.686 0 0 1-.476 5.202 3.726 3.726 0 0 1-2.652 2.67c-1.81.465-8.154.479-8.872.479z"/>
</svg>
